<?xml version="1.0" encoding="UTF-8" standalone="no"?>
<!-- Created with Inkscape (http://www.inkscape.org/) -->

<svg
   xmlns:dc="http://purl.org/dc/elements/1.1/"
   xmlns:cc="http://creativecommons.org/ns#"
   xmlns:rdf="http://www.w3.org/1999/02/22-rdf-syntax-ns#"
   xmlns:svg="http://www.w3.org/2000/svg"
   xmlns="http://www.w3.org/2000/svg"
   xmlns:sodipodi="http://sodipodi.sourceforge.net/DTD/sodipodi-0.dtd"
   xmlns:inkscape="http://www.inkscape.org/namespaces/inkscape"
   id="svg8"
   version="1.1"
   viewBox="0 0 26.558332 21.266666"
   height="21.266666mm"
   width="26.558332mm"
   inkscape:version="0.92.4 (5da689c313, 2019-01-14)"
   sodipodi:docname="jigsaw.svg">
  <defs
     id="defs2" />
  <sodipodi:namedview
     id="base"
     pagecolor="#ffffff"
     bordercolor="#666666"
     borderopacity="1.0"
     inkscape:pageopacity="0.0"
     inkscape:pageshadow="2"
     inkscape:zoom="6.81779"
     inkscape:cx="50.188975"
     inkscape:cy="40.188976"
     inkscape:document-units="mm"
     inkscape:current-layer="layer1"
     showgrid="false"
     inkscape:window-width="1304"
     inkscape:window-height="745"
     inkscape:window-x="54"
     inkscape:window-y="-8"
     inkscape:window-maximized="1"
     fit-margin-top="0"
     fit-margin-left="0"
     fit-margin-right="0"
     fit-margin-bottom="0" />
  <metadata
     id="metadata5">
    <rdf:RDF>
      <cc:Work
         rdf:about="">
        <dc:format>image/svg+xml</dc:format>
        <dc:type
           rdf:resource="http://purl.org/dc/dcmitype/StillImage" />
        <dc:title></dc:title>
      </cc:Work>
    </rdf:RDF>
  </metadata>
  <g
     inkscape:label="Layer 1"
     inkscape:groupmode="layer"
     id="layer1"
     transform="translate(-91.720833,-137.86667)">
    <g
       id="g96"
       transform="translate(91.770833,137.91667)"
       inkscape:label="Jigsaw:X5:Y4">
      <g
         id="g87"
         inkscape:label="X_Gridlines">
        <path
           style="fill:none;stroke:#0000ff;stroke-width:0.1;stroke-linecap:butt;stroke-linejoin:miter"
           id="XDiv1"
           d="m 21.166666,0 c 0,0 -0.578761,1.0661025 -0.251551,1.901538 0.327209,0.8354355 0.43421,-0.1505074 1.274567,-0.1409842 0.840358,0.00952 0.618211,1.7034279 -0.01125,1.7119164 -0.629461,0.00849 -1.006925,-0.6897015 -1.313904,-0.05978 -0.306978,0.6299214 0.865848,2.972078 0.496748,3.7815834 -0.3691,0.8095054 -0.415561,-0.3149177 -1.193228,-0.2180867 -0.777667,0.096831 -0.530844,1.8634529 0.183884,1.9673355 0.714727,0.1038826 0.803907,-0.837538 1.16141,-0.1872349 0.357503,0.650303 0.187244,2.7271345 -0.211308,3.4783865 -0.398552,0.751252 -0.323676,0.110958 -1.145677,0.171154 -0.822,0.0602 -0.672867,1.528814 0.01375,1.622966 0.68662,0.09415 0.904534,-0.504524 1.298995,0.197192 0.39446,0.701717 -0.957561,2.802746 -0.558404,3.549481 0.399157,0.746735 0.22338,-0.178486 1.0068,-0.0844 0.78342,0.09408 0.787443,1.729136 0.06169,1.834569 -0.725751,0.105432 -0.54112,-0.719724 -0.904423,-0.06474 -0.363303,0.654984 0.0919,1.705775 0.0919,1.705775"
           inkscape:connector-curvature="0" />
        <path
           style="fill:none;stroke:#0000ff;stroke-width:0.1;stroke-linecap:butt;stroke-linejoin:miter"
           id="XDiv2"
           d="m 15.875,0 c 0,0 -0.440084,0.97938156 -0.0841,1.8001061 0.355982,0.8207244 0.0274,-0.1755989 0.847392,-0.1125954 0.819991,0.063003 0.623821,1.7519856 -0.0093,1.7807081 -0.633092,0.028722 -0.671342,-0.4430941 -1.010294,0.196056 -0.338952,0.6391501 0.808691,2.6918132 0.496445,3.5310123 -0.312246,0.8391991 -0.492671,-0.2705043 -1.259996,-0.1697434 -0.767326,0.100761 -0.397889,1.8230641 0.248683,1.8812823 0.646572,0.058218 0.564082,-0.6146349 0.914695,0.030912 0.350613,0.6455472 -0.622798,2.678126 -0.225075,3.434018 0.397722,0.755892 0.02287,0.0026 0.848478,0.05726 0.825609,0.05461 0.823684,1.452809 0.142841,1.543764 -0.680844,0.09096 -0.745858,-0.612091 -1.056112,0.01829 -0.310255,0.630379 -0.275406,2.90296 0.02988,3.743141 0.30529,0.840181 0.131454,-0.284757 0.886082,-0.180769 0.754628,0.103989 0.946306,1.804919 0.241351,1.906412 -0.704956,0.101493 -0.721714,-0.828161 -1.113288,-0.134151 -0.391574,0.69401 0.102288,1.84097 0.102288,1.84097"
           inkscape:connector-curvature="0" />
        <path
           style="fill:none;stroke:#0000ff;stroke-width:0.1;stroke-linecap:butt;stroke-linejoin:miter"
           id="XDiv3"
           d="m 10.583333,0 c 0,0 -0.6458689,1.027338 -0.320555,1.8633806 0.325314,0.8360426 0.463629,-0.3158699 1.258842,-0.2288666 0.795213,0.087003 0.535351,1.9769371 -0.105573,2.0255086 -0.640925,0.048571 -0.810134,-0.6599523 -1.143028,-0.023418 -0.3328954,0.636534 0.790752,2.6936926 0.392805,3.4484426 -0.397947,0.7547501 -0.205649,0.068043 -1.0448158,0.086489 -0.8391672,0.018446 -0.549445,1.5035721 0.079725,1.5067994 0.6291688,0.00323 0.6679638,-0.4067764 1.0520548,0.2726701 0.384091,0.6794465 -0.8870034,2.5829733 -0.53086,3.4035813 0.356144,0.820607 0.478841,0.03377 1.248826,0.133641 0.769986,0.09987 0.693227,1.667749 0.0028,1.763751 -0.690407,0.096 -0.670291,-0.683022 -1.045759,-0.0156 -0.375468,0.667422 0.913616,2.629308 0.516249,3.386894 -0.397366,0.757586 -0.288035,0.08607 -1.1281421,0.09805 -0.8401071,0.01198 -0.8229626,1.72373 -0.1273275,1.821989 0.6956346,0.09826 0.6149396,-0.751527 0.9824816,-0.09266 0.367541,0.658864 -0.08774,1.716022 -0.08774,1.716022"
           inkscape:connector-curvature="0" />
        <path
           style="fill:none;stroke:#0000ff;stroke-width:0.1;stroke-linecap:butt;stroke-linejoin:miter"
           id="XDiv4"
           d="m 5.2916663,0 c 0,0 0.4720873,1.0020263 0.079943,1.7765371 C 4.9794651,2.5510479 5.2523163,1.8490317 4.4268941,1.9039512 3.6014719,1.9588707 3.5756613,3.4517127 4.2703033,3.549568 4.9649454,3.6474233 5.0294949,2.7579906 5.409361,3.4311017 5.7892272,4.1042127 4.7932664,6.3521356 5.1438072,7.1765418 5.4943479,8.000948 5.2717121,7.0936934 6.0847284,7.1651561 c 0.8130164,0.071463 0.7349127,1.7073762 0.062329,1.7928786 -0.6725836,0.085502 -0.6118863,-0.7106382 -1.002973,-0.017771 -0.3910867,0.6928672 0.6645292,2.7298713 0.27742,3.5151033 -0.3871092,0.785232 -0.3130573,-0.12162 -1.152892,-0.107454 -0.8398348,0.01417 -0.7070242,1.612536 0.00796,1.716468 0.7149847,0.103932 0.9285454,-0.737986 1.2925932,-0.08235 0.3640479,0.655635 -0.7894118,2.809915 -0.3914095,3.564371 0.3980023,0.754457 0.3799095,0.02973 1.130601,0.134387 0.7506915,0.104657 0.6634449,1.526469 -0.032421,1.62482 -0.6958659,0.09835 -0.8332134,-0.693053 -1.1901354,-0.04318 -0.3569221,0.64987 0.205865,1.904241 0.205865,1.904241"
           inkscape:connector-curvature="0" />
      </g>
      <g
         id="g92"
         inkscape:label="Y_Gridlines">
        <path
           style="fill:none;stroke:#0000ff;stroke-width:0.1;stroke-linecap:butt;stroke-linejoin:miter"
           id="YDiv1"
           d="m 0,5.2916667 c 0,0 1.1330723,-0.604729 1.9047121,-0.211476 C 2.6763518,5.4734437 1.7312542,5.2703638 1.8281151,6.0479634 1.9249759,6.825563 3.429563,6.9531828 3.4853205,6.3081835 3.5410781,5.6631842 2.7724376,5.5434764 3.4322119,5.175005 4.0919862,4.8065336 6.0879088,4.6959795 6.9250433,5.0175251 7.7621778,5.3390708 7.0312427,5.50669 7.1201367,6.2990767 7.2090307,7.0914635 8.5812681,6.8480909 8.6861497,6.1272984 8.7910314,5.4065058 8.0881771,5.5322287 8.7330256,5.1827338 9.377874,4.8332389 11.591856,5.9349057 12.431489,5.6253402 13.271123,5.3157747 12.263444,5.0957682 12.319882,4.2712851 c 0.05644,-0.8244832 1.739567,-0.4438511 1.843199,0.2696296 0.103632,0.7134806 -0.758804,0.7815969 -0.128745,1.0896351 0.630058,0.3080382 2.964939,0.2740868 3.745631,-0.1153343 0.780692,-0.3894211 -0.09561,-0.3603516 -0.0098,-1.1572431 0.08582,-0.7968915 1.638765,-0.7314618 1.729702,-0.050649 0.09094,0.6808128 -0.734004,0.7012234 -0.07867,1.0649257 0.655332,0.3637023 2.714573,0.3876236 3.497476,-7.062e-4 0.782903,-0.3883297 -0.0099,0.012493 0.02726,-0.8215499 0.03717,-0.8340428 1.597207,-0.7908899 1.608948,-0.1611164 0.01174,0.6297736 -0.557031,0.6170716 0.103943,0.9867347 0.660974,0.3696632 1.799508,-0.083944 1.799508,-0.083944"
           inkscape:connector-curvature="0" />
        <path
           style="fill:none;stroke:#0000ff;stroke-width:0.1;stroke-linecap:butt;stroke-linejoin:miter"
           id="YDiv2"
           d="m 0,10.583333 c 0,0 0.96900016,-0.6602441 1.809093,-0.354161 0.8400928,0.306084 -0.2802308,0.426101 -0.1779472,1.188235 0.1022836,0.762134 1.8497501,0.88531 1.9519992,0.177666 0.102249,-0.707644 -0.8557555,-0.922009 -0.1751677,-1.306792 0.6805877,-0.3847841 2.9239187,0.775083 3.7172656,0.392835 0.7933468,-0.382247 -0.034251,-0.0358 0.01306,-0.865424 0.047312,-0.8296232 1.5988149,-0.6770857 1.6996073,0.025595 0.1007925,0.70268 -0.8650475,0.531419 -0.1553317,0.92818 0.7097158,0.396762 2.9993685,-0.7835486 3.8056735,-0.411403 0.806305,0.372146 -0.06297,0.209331 -0.01713,1.039676 0.04584,0.830345 1.666596,0.55999 1.674076,-0.0694 0.0075,-0.629385 -0.644177,-0.798479 -0.01429,-1.105213 0.629892,-0.3067331 2.572777,-0.2858359 3.408892,0.03925 0.836114,0.325081 0.0027,0.492394 0.03442,1.328324 0.0317,0.83593 1.707366,0.414431 1.719875,-0.215432 0.01251,-0.629862 -0.716672,-0.55075 -0.01533,-0.945086 0.701341,-0.394335 2.985764,0.826233 3.775423,0.441653 0.789659,-0.384579 -0.07699,-0.211271 -0.05177,-1.0490082 0.02522,-0.8377381 1.727193,-0.8607362 1.83016,-0.1502433 0.102968,0.7104925 -0.750942,0.9643125 -0.121019,1.2713035 0.629923,0.306991 1.746768,-0.360555 1.746768,-0.360555"
           inkscape:connector-curvature="0" />
        <path
           style="fill:none;stroke:#0000ff;stroke-width:0.1;stroke-linecap:butt;stroke-linejoin:miter"
           id="YDiv3"
           d="m 0,15.875 c 0,0 1.1382873,-0.612609 1.9049717,-0.217662 0.7666845,0.394946 -0.3693558,0.308173 -0.2821508,1.103094 0.087205,0.79492 1.8553397,0.857485 1.9611172,0.125967 0.1057776,-0.731519 -0.8132851,-0.967273 -0.1662873,-1.320114 0.6469979,-0.352842 2.9341249,0.801686 3.7733615,0.489656 0.8392367,-0.31203 -0.3089422,-0.164823 -0.2576854,-0.992369 0.051257,-0.827547 1.8085517,-0.599501 1.8920847,0.07047 0.083533,0.66997 -0.5927155,0.474703 0.095967,0.863867 0.6886827,0.389164 2.5026814,0.46971 3.2856604,0.08142 0.78298,-0.38829 0.04472,-0.166532 0.141123,-0.945162 0.0964,-0.778631 1.539695,-0.776905 1.642286,-0.06795 0.102591,0.708958 -0.628872,0.503888 0.07027,0.897461 0.699144,0.393572 2.857422,0.662618 3.620177,0.26652 0.762756,-0.396098 -0.0515,-0.371129 0.05129,-1.131279 0.10279,-0.760151 1.74466,-0.828825 1.781521,-0.193078 0.03686,0.635746 -0.863688,0.926136 -0.179138,1.313177 0.68455,0.387042 2.75764,0.358766 3.587179,0.0173 0.829538,-0.341463 -0.190466,-0.368912 -0.117674,-1.18069 0.07279,-0.811778 1.701409,-0.647247 1.797741,0.04388 0.09633,0.691127 -0.709629,0.610632 -0.04771,0.981206 0.661918,0.370574 1.904225,-0.205718 1.904225,-0.205718"
           inkscape:connector-curvature="0" />
      </g>
      <path
         id="path94"
         inkscape:label="innerborder"
         style="fill:none;stroke:#0000ff;stroke-width:0.1;stroke-linecap:butt;stroke-linejoin:miter"
         d="M 0,5 C 0,2.5 2.5,0 5,0 c 2.5,0 13.958333,0 16.458333,0 2.5,0 5,2.5 5,5 0,2.5 0,8.666667 0,11.166667 0,2.5 -2.5,5 -5,5 -2.5,0 -13.958333,0 -16.458333,0 -2.5,0 -5,-2.5 -5,-5 C 0,13.666667 0,7.5 0,5"
         inkscape:connector-curvature="0" />
    </g>
  </g>
</svg>
